%TF.GenerationSoftware,KiCad,Pcbnew,8.0.4*%
%TF.CreationDate,2024-08-12T23:01:29-04:00*%
%TF.ProjectId,SAMD21_MIDI_SPEAKER,53414d44-3231-45f4-9d49-44495f535045,rev?*%
%TF.SameCoordinates,Original*%
%TF.FileFunction,Legend,Top*%
%TF.FilePolarity,Positive*%
%FSLAX46Y46*%
G04 Gerber Fmt 4.6, Leading zero omitted, Abs format (unit mm)*
G04 Created by KiCad (PCBNEW 8.0.4) date 2024-08-12 23:01:29*
%MOMM*%
%LPD*%
G01*
G04 APERTURE LIST*
%ADD10C,0.150000*%
%ADD11C,0.100000*%
%ADD12C,0.120000*%
G04 APERTURE END LIST*
D10*
X189704819Y-56238094D02*
X188704819Y-56238094D01*
X188704819Y-56238094D02*
X188704819Y-55857142D01*
X188704819Y-55857142D02*
X188752438Y-55761904D01*
X188752438Y-55761904D02*
X188800057Y-55714285D01*
X188800057Y-55714285D02*
X188895295Y-55666666D01*
X188895295Y-55666666D02*
X189038152Y-55666666D01*
X189038152Y-55666666D02*
X189133390Y-55714285D01*
X189133390Y-55714285D02*
X189181009Y-55761904D01*
X189181009Y-55761904D02*
X189228628Y-55857142D01*
X189228628Y-55857142D02*
X189228628Y-56238094D01*
X189704819Y-54714285D02*
X189704819Y-55285713D01*
X189704819Y-54999999D02*
X188704819Y-54999999D01*
X188704819Y-54999999D02*
X188847676Y-55095237D01*
X188847676Y-55095237D02*
X188942914Y-55190475D01*
X188942914Y-55190475D02*
X188990533Y-55285713D01*
D11*
X165942580Y-46516666D02*
X165228295Y-46516666D01*
X165228295Y-46516666D02*
X165085438Y-46469047D01*
X165085438Y-46469047D02*
X164990200Y-46373809D01*
X164990200Y-46373809D02*
X164942580Y-46230952D01*
X164942580Y-46230952D02*
X164942580Y-46135714D01*
X165847342Y-46945238D02*
X165894961Y-46992857D01*
X165894961Y-46992857D02*
X165942580Y-47088095D01*
X165942580Y-47088095D02*
X165942580Y-47326190D01*
X165942580Y-47326190D02*
X165894961Y-47421428D01*
X165894961Y-47421428D02*
X165847342Y-47469047D01*
X165847342Y-47469047D02*
X165752104Y-47516666D01*
X165752104Y-47516666D02*
X165656866Y-47516666D01*
X165656866Y-47516666D02*
X165514009Y-47469047D01*
X165514009Y-47469047D02*
X164942580Y-46897619D01*
X164942580Y-46897619D02*
X164942580Y-47516666D01*
D10*
X181266666Y-69454819D02*
X181266666Y-70169104D01*
X181266666Y-70169104D02*
X181219047Y-70311961D01*
X181219047Y-70311961D02*
X181123809Y-70407200D01*
X181123809Y-70407200D02*
X180980952Y-70454819D01*
X180980952Y-70454819D02*
X180885714Y-70454819D01*
X182266666Y-70454819D02*
X181695238Y-70454819D01*
X181980952Y-70454819D02*
X181980952Y-69454819D01*
X181980952Y-69454819D02*
X181885714Y-69597676D01*
X181885714Y-69597676D02*
X181790476Y-69692914D01*
X181790476Y-69692914D02*
X181695238Y-69740533D01*
X154524819Y-58238094D02*
X153524819Y-58238094D01*
X153524819Y-58238094D02*
X153524819Y-57999999D01*
X153524819Y-57999999D02*
X153572438Y-57857142D01*
X153572438Y-57857142D02*
X153667676Y-57761904D01*
X153667676Y-57761904D02*
X153762914Y-57714285D01*
X153762914Y-57714285D02*
X153953390Y-57666666D01*
X153953390Y-57666666D02*
X154096247Y-57666666D01*
X154096247Y-57666666D02*
X154286723Y-57714285D01*
X154286723Y-57714285D02*
X154381961Y-57761904D01*
X154381961Y-57761904D02*
X154477200Y-57857142D01*
X154477200Y-57857142D02*
X154524819Y-57999999D01*
X154524819Y-57999999D02*
X154524819Y-58238094D01*
X153620057Y-57285713D02*
X153572438Y-57238094D01*
X153572438Y-57238094D02*
X153524819Y-57142856D01*
X153524819Y-57142856D02*
X153524819Y-56904761D01*
X153524819Y-56904761D02*
X153572438Y-56809523D01*
X153572438Y-56809523D02*
X153620057Y-56761904D01*
X153620057Y-56761904D02*
X153715295Y-56714285D01*
X153715295Y-56714285D02*
X153810533Y-56714285D01*
X153810533Y-56714285D02*
X153953390Y-56761904D01*
X153953390Y-56761904D02*
X154524819Y-57333332D01*
X154524819Y-57333332D02*
X154524819Y-56714285D01*
X151934819Y-58238094D02*
X150934819Y-58238094D01*
X150934819Y-58238094D02*
X150934819Y-57999999D01*
X150934819Y-57999999D02*
X150982438Y-57857142D01*
X150982438Y-57857142D02*
X151077676Y-57761904D01*
X151077676Y-57761904D02*
X151172914Y-57714285D01*
X151172914Y-57714285D02*
X151363390Y-57666666D01*
X151363390Y-57666666D02*
X151506247Y-57666666D01*
X151506247Y-57666666D02*
X151696723Y-57714285D01*
X151696723Y-57714285D02*
X151791961Y-57761904D01*
X151791961Y-57761904D02*
X151887200Y-57857142D01*
X151887200Y-57857142D02*
X151934819Y-57999999D01*
X151934819Y-57999999D02*
X151934819Y-58238094D01*
X151934819Y-56714285D02*
X151934819Y-57285713D01*
X151934819Y-56999999D02*
X150934819Y-56999999D01*
X150934819Y-56999999D02*
X151077676Y-57095237D01*
X151077676Y-57095237D02*
X151172914Y-57190475D01*
X151172914Y-57190475D02*
X151220533Y-57285713D01*
X172933333Y-68252080D02*
X172885714Y-68299700D01*
X172885714Y-68299700D02*
X172742857Y-68347319D01*
X172742857Y-68347319D02*
X172647619Y-68347319D01*
X172647619Y-68347319D02*
X172504762Y-68299700D01*
X172504762Y-68299700D02*
X172409524Y-68204461D01*
X172409524Y-68204461D02*
X172361905Y-68109223D01*
X172361905Y-68109223D02*
X172314286Y-67918747D01*
X172314286Y-67918747D02*
X172314286Y-67775890D01*
X172314286Y-67775890D02*
X172361905Y-67585414D01*
X172361905Y-67585414D02*
X172409524Y-67490176D01*
X172409524Y-67490176D02*
X172504762Y-67394938D01*
X172504762Y-67394938D02*
X172647619Y-67347319D01*
X172647619Y-67347319D02*
X172742857Y-67347319D01*
X172742857Y-67347319D02*
X172885714Y-67394938D01*
X172885714Y-67394938D02*
X172933333Y-67442557D01*
X173314286Y-67442557D02*
X173361905Y-67394938D01*
X173361905Y-67394938D02*
X173457143Y-67347319D01*
X173457143Y-67347319D02*
X173695238Y-67347319D01*
X173695238Y-67347319D02*
X173790476Y-67394938D01*
X173790476Y-67394938D02*
X173838095Y-67442557D01*
X173838095Y-67442557D02*
X173885714Y-67537795D01*
X173885714Y-67537795D02*
X173885714Y-67633033D01*
X173885714Y-67633033D02*
X173838095Y-67775890D01*
X173838095Y-67775890D02*
X173266667Y-68347319D01*
X173266667Y-68347319D02*
X173885714Y-68347319D01*
X172933333Y-65742080D02*
X172885714Y-65789700D01*
X172885714Y-65789700D02*
X172742857Y-65837319D01*
X172742857Y-65837319D02*
X172647619Y-65837319D01*
X172647619Y-65837319D02*
X172504762Y-65789700D01*
X172504762Y-65789700D02*
X172409524Y-65694461D01*
X172409524Y-65694461D02*
X172361905Y-65599223D01*
X172361905Y-65599223D02*
X172314286Y-65408747D01*
X172314286Y-65408747D02*
X172314286Y-65265890D01*
X172314286Y-65265890D02*
X172361905Y-65075414D01*
X172361905Y-65075414D02*
X172409524Y-64980176D01*
X172409524Y-64980176D02*
X172504762Y-64884938D01*
X172504762Y-64884938D02*
X172647619Y-64837319D01*
X172647619Y-64837319D02*
X172742857Y-64837319D01*
X172742857Y-64837319D02*
X172885714Y-64884938D01*
X172885714Y-64884938D02*
X172933333Y-64932557D01*
X173885714Y-65837319D02*
X173314286Y-65837319D01*
X173600000Y-65837319D02*
X173600000Y-64837319D01*
X173600000Y-64837319D02*
X173504762Y-64980176D01*
X173504762Y-64980176D02*
X173409524Y-65075414D01*
X173409524Y-65075414D02*
X173314286Y-65123033D01*
X160738095Y-91254819D02*
X160738095Y-92064342D01*
X160738095Y-92064342D02*
X160785714Y-92159580D01*
X160785714Y-92159580D02*
X160833333Y-92207200D01*
X160833333Y-92207200D02*
X160928571Y-92254819D01*
X160928571Y-92254819D02*
X161119047Y-92254819D01*
X161119047Y-92254819D02*
X161214285Y-92207200D01*
X161214285Y-92207200D02*
X161261904Y-92159580D01*
X161261904Y-92159580D02*
X161309523Y-92064342D01*
X161309523Y-92064342D02*
X161309523Y-91254819D01*
X162214285Y-91588152D02*
X162214285Y-92254819D01*
X161976190Y-91207200D02*
X161738095Y-91921485D01*
X161738095Y-91921485D02*
X162357142Y-91921485D01*
X156738094Y-88619104D02*
X157214284Y-88619104D01*
X156642856Y-88904819D02*
X156976189Y-87904819D01*
X156976189Y-87904819D02*
X157309522Y-88904819D01*
X157642856Y-88238152D02*
X157642856Y-88904819D01*
X157642856Y-88333390D02*
X157690475Y-88285771D01*
X157690475Y-88285771D02*
X157785713Y-88238152D01*
X157785713Y-88238152D02*
X157928570Y-88238152D01*
X157928570Y-88238152D02*
X158023808Y-88285771D01*
X158023808Y-88285771D02*
X158071427Y-88381009D01*
X158071427Y-88381009D02*
X158071427Y-88904819D01*
X158404761Y-88238152D02*
X158785713Y-88238152D01*
X158547618Y-87904819D02*
X158547618Y-88761961D01*
X158547618Y-88761961D02*
X158595237Y-88857200D01*
X158595237Y-88857200D02*
X158690475Y-88904819D01*
X158690475Y-88904819D02*
X158785713Y-88904819D01*
X159499999Y-88857200D02*
X159404761Y-88904819D01*
X159404761Y-88904819D02*
X159214285Y-88904819D01*
X159214285Y-88904819D02*
X159119047Y-88857200D01*
X159119047Y-88857200D02*
X159071428Y-88761961D01*
X159071428Y-88761961D02*
X159071428Y-88381009D01*
X159071428Y-88381009D02*
X159119047Y-88285771D01*
X159119047Y-88285771D02*
X159214285Y-88238152D01*
X159214285Y-88238152D02*
X159404761Y-88238152D01*
X159404761Y-88238152D02*
X159499999Y-88285771D01*
X159499999Y-88285771D02*
X159547618Y-88381009D01*
X159547618Y-88381009D02*
X159547618Y-88476247D01*
X159547618Y-88476247D02*
X159071428Y-88571485D01*
X159976190Y-88238152D02*
X159976190Y-88904819D01*
X159976190Y-88333390D02*
X160023809Y-88285771D01*
X160023809Y-88285771D02*
X160119047Y-88238152D01*
X160119047Y-88238152D02*
X160261904Y-88238152D01*
X160261904Y-88238152D02*
X160357142Y-88285771D01*
X160357142Y-88285771D02*
X160404761Y-88381009D01*
X160404761Y-88381009D02*
X160404761Y-88904819D01*
X160880952Y-88238152D02*
X160880952Y-88904819D01*
X160880952Y-88333390D02*
X160928571Y-88285771D01*
X160928571Y-88285771D02*
X161023809Y-88238152D01*
X161023809Y-88238152D02*
X161166666Y-88238152D01*
X161166666Y-88238152D02*
X161261904Y-88285771D01*
X161261904Y-88285771D02*
X161309523Y-88381009D01*
X161309523Y-88381009D02*
X161309523Y-88904819D01*
X162214285Y-88904819D02*
X162214285Y-88381009D01*
X162214285Y-88381009D02*
X162166666Y-88285771D01*
X162166666Y-88285771D02*
X162071428Y-88238152D01*
X162071428Y-88238152D02*
X161880952Y-88238152D01*
X161880952Y-88238152D02*
X161785714Y-88285771D01*
X162214285Y-88857200D02*
X162119047Y-88904819D01*
X162119047Y-88904819D02*
X161880952Y-88904819D01*
X161880952Y-88904819D02*
X161785714Y-88857200D01*
X161785714Y-88857200D02*
X161738095Y-88761961D01*
X161738095Y-88761961D02*
X161738095Y-88666723D01*
X161738095Y-88666723D02*
X161785714Y-88571485D01*
X161785714Y-88571485D02*
X161880952Y-88523866D01*
X161880952Y-88523866D02*
X162119047Y-88523866D01*
X162119047Y-88523866D02*
X162214285Y-88476247D01*
X163404762Y-88619104D02*
X163880952Y-88619104D01*
X163309524Y-88904819D02*
X163642857Y-87904819D01*
X163642857Y-87904819D02*
X163976190Y-88904819D01*
X164309524Y-88904819D02*
X164309524Y-88238152D01*
X164309524Y-88428628D02*
X164357143Y-88333390D01*
X164357143Y-88333390D02*
X164404762Y-88285771D01*
X164404762Y-88285771D02*
X164500000Y-88238152D01*
X164500000Y-88238152D02*
X164595238Y-88238152D01*
X165309524Y-88857200D02*
X165214286Y-88904819D01*
X165214286Y-88904819D02*
X165023810Y-88904819D01*
X165023810Y-88904819D02*
X164928572Y-88857200D01*
X164928572Y-88857200D02*
X164880953Y-88761961D01*
X164880953Y-88761961D02*
X164880953Y-88381009D01*
X164880953Y-88381009D02*
X164928572Y-88285771D01*
X164928572Y-88285771D02*
X165023810Y-88238152D01*
X165023810Y-88238152D02*
X165214286Y-88238152D01*
X165214286Y-88238152D02*
X165309524Y-88285771D01*
X165309524Y-88285771D02*
X165357143Y-88381009D01*
X165357143Y-88381009D02*
X165357143Y-88476247D01*
X165357143Y-88476247D02*
X164880953Y-88571485D01*
X166214286Y-88904819D02*
X166214286Y-88381009D01*
X166214286Y-88381009D02*
X166166667Y-88285771D01*
X166166667Y-88285771D02*
X166071429Y-88238152D01*
X166071429Y-88238152D02*
X165880953Y-88238152D01*
X165880953Y-88238152D02*
X165785715Y-88285771D01*
X166214286Y-88857200D02*
X166119048Y-88904819D01*
X166119048Y-88904819D02*
X165880953Y-88904819D01*
X165880953Y-88904819D02*
X165785715Y-88857200D01*
X165785715Y-88857200D02*
X165738096Y-88761961D01*
X165738096Y-88761961D02*
X165738096Y-88666723D01*
X165738096Y-88666723D02*
X165785715Y-88571485D01*
X165785715Y-88571485D02*
X165880953Y-88523866D01*
X165880953Y-88523866D02*
X166119048Y-88523866D01*
X166119048Y-88523866D02*
X166214286Y-88476247D01*
X154613095Y-60529819D02*
X154613095Y-61339342D01*
X154613095Y-61339342D02*
X154660714Y-61434580D01*
X154660714Y-61434580D02*
X154708333Y-61482200D01*
X154708333Y-61482200D02*
X154803571Y-61529819D01*
X154803571Y-61529819D02*
X154994047Y-61529819D01*
X154994047Y-61529819D02*
X155089285Y-61482200D01*
X155089285Y-61482200D02*
X155136904Y-61434580D01*
X155136904Y-61434580D02*
X155184523Y-61339342D01*
X155184523Y-61339342D02*
X155184523Y-60529819D01*
X155565476Y-60529819D02*
X156184523Y-60529819D01*
X156184523Y-60529819D02*
X155851190Y-60910771D01*
X155851190Y-60910771D02*
X155994047Y-60910771D01*
X155994047Y-60910771D02*
X156089285Y-60958390D01*
X156089285Y-60958390D02*
X156136904Y-61006009D01*
X156136904Y-61006009D02*
X156184523Y-61101247D01*
X156184523Y-61101247D02*
X156184523Y-61339342D01*
X156184523Y-61339342D02*
X156136904Y-61434580D01*
X156136904Y-61434580D02*
X156089285Y-61482200D01*
X156089285Y-61482200D02*
X155994047Y-61529819D01*
X155994047Y-61529819D02*
X155708333Y-61529819D01*
X155708333Y-61529819D02*
X155613095Y-61482200D01*
X155613095Y-61482200D02*
X155565476Y-61434580D01*
X176375595Y-55629819D02*
X176375595Y-56439342D01*
X176375595Y-56439342D02*
X176423214Y-56534580D01*
X176423214Y-56534580D02*
X176470833Y-56582200D01*
X176470833Y-56582200D02*
X176566071Y-56629819D01*
X176566071Y-56629819D02*
X176756547Y-56629819D01*
X176756547Y-56629819D02*
X176851785Y-56582200D01*
X176851785Y-56582200D02*
X176899404Y-56534580D01*
X176899404Y-56534580D02*
X176947023Y-56439342D01*
X176947023Y-56439342D02*
X176947023Y-55629819D01*
X177375595Y-55725057D02*
X177423214Y-55677438D01*
X177423214Y-55677438D02*
X177518452Y-55629819D01*
X177518452Y-55629819D02*
X177756547Y-55629819D01*
X177756547Y-55629819D02*
X177851785Y-55677438D01*
X177851785Y-55677438D02*
X177899404Y-55725057D01*
X177899404Y-55725057D02*
X177947023Y-55820295D01*
X177947023Y-55820295D02*
X177947023Y-55915533D01*
X177947023Y-55915533D02*
X177899404Y-56058390D01*
X177899404Y-56058390D02*
X177327976Y-56629819D01*
X177327976Y-56629819D02*
X177947023Y-56629819D01*
D12*
%TO.C,P1*%
X192600000Y-60080000D02*
X194600000Y-60080000D01*
X196500000Y-60080000D02*
X198010000Y-60080000D01*
X198010000Y-60080000D02*
X198010000Y-50920000D01*
X192600000Y-50920000D02*
X194600000Y-50920000D01*
X196500000Y-50920000D02*
X198010000Y-50920000D01*
D11*
%TO.C,J2*%
X169400000Y-50350000D02*
X169400000Y-59850000D01*
X164900000Y-50350000D02*
X169400000Y-50350000D01*
X160400000Y-50350000D02*
X164900000Y-50350000D01*
X159900000Y-50350000D02*
X159900000Y-50350000D01*
X169400000Y-61850000D02*
X160400000Y-61850000D01*
X160400000Y-61850000D02*
X160400000Y-50350000D01*
D12*
%TO.C,J1*%
X183650000Y-84145000D02*
X184700000Y-84145000D01*
X183650000Y-71855000D02*
X184700000Y-71855000D01*
X180480000Y-73600000D02*
X180480000Y-82400000D01*
X180480000Y-73600000D02*
X179725000Y-73600000D01*
%TO.C,D2*%
X154765000Y-58985000D02*
X156235000Y-58985000D01*
X156235000Y-58985000D02*
X156235000Y-56700000D01*
X154765000Y-56700000D02*
X154765000Y-58985000D01*
%TO.C,D1*%
X152175000Y-58985000D02*
X153645000Y-58985000D01*
X153645000Y-58985000D02*
X153645000Y-56700000D01*
X152175000Y-56700000D02*
X152175000Y-58985000D01*
%TO.C,C2*%
X172959420Y-68812500D02*
X173240580Y-68812500D01*
X172959420Y-69832500D02*
X173240580Y-69832500D01*
%TO.C,C1*%
X172959420Y-66302500D02*
X173240580Y-66302500D01*
X172959420Y-67322500D02*
X173240580Y-67322500D01*
%TO.C,U4*%
X169350000Y-70150000D02*
X169350000Y-71200000D01*
X169200000Y-90800000D02*
X169200000Y-85700000D01*
X169200000Y-90800000D02*
X153800000Y-90800000D01*
X169200000Y-70300000D02*
X169200000Y-85700000D01*
X168300000Y-70150000D02*
X169350000Y-70150000D01*
X168150000Y-90950000D02*
X169350000Y-90950000D01*
X154700000Y-90950000D02*
X153650000Y-90950000D01*
X154700000Y-70150000D02*
X153650000Y-70150000D01*
X153800000Y-90800000D02*
X153800000Y-85700000D01*
X153800000Y-85700000D02*
X153800000Y-70300000D01*
X153800000Y-70300000D02*
X169200000Y-70300000D01*
X153650000Y-90950000D02*
X153650000Y-89950000D01*
X153650000Y-70150000D02*
X153650000Y-71200000D01*
%TO.C,U3*%
X153265000Y-62990000D02*
X153265000Y-62505000D01*
X153265000Y-66485000D02*
X153265000Y-65760000D01*
X153990000Y-62265000D02*
X153565000Y-62265000D01*
X153990000Y-66485000D02*
X153265000Y-66485000D01*
X156760000Y-62265000D02*
X157485000Y-62265000D01*
X156760000Y-66485000D02*
X157485000Y-66485000D01*
X157485000Y-62265000D02*
X157485000Y-62990000D01*
X157485000Y-66485000D02*
X157485000Y-65760000D01*
X153265000Y-62265000D02*
X153025000Y-61935000D01*
X153505000Y-61935000D01*
X153265000Y-62265000D01*
G36*
X153265000Y-62265000D02*
G01*
X153025000Y-61935000D01*
X153505000Y-61935000D01*
X153265000Y-62265000D01*
G37*
%TO.C,U2*%
X177137500Y-56890000D02*
X174937500Y-56890000D01*
X177137500Y-56890000D02*
X179337500Y-56890000D01*
X177137500Y-62360000D02*
X174937500Y-62360000D01*
X177137500Y-62360000D02*
X179337500Y-62360000D01*
X173277500Y-57350000D02*
X172947500Y-57590000D01*
X172947500Y-57110000D01*
X173277500Y-57350000D01*
G36*
X173277500Y-57350000D02*
G01*
X172947500Y-57590000D01*
X172947500Y-57110000D01*
X173277500Y-57350000D01*
G37*
%TD*%
M02*
