%TF.GenerationSoftware,KiCad,Pcbnew,8.0.4*%
%TF.CreationDate,2024-08-12T23:01:41-04:00*%
%TF.ProjectId,SAMD21_MIDI_SPEAKER,53414d44-3231-45f4-9d49-44495f535045,rev?*%
%TF.SameCoordinates,Original*%
%TF.FileFunction,Drillmap*%
%TF.FilePolarity,Positive*%
%FSLAX45Y45*%
G04 Gerber Fmt 4.5, Leading zero omitted, Abs format (unit mm)*
G04 Created by KiCad (PCBNEW 8.0.4) date 2024-08-12 23:01:41*
%MOMM*%
%LPD*%
G01*
G04 APERTURE LIST*
%ADD10C,0.050000*%
%ADD11C,0.200000*%
%ADD12C,0.110000*%
%ADD13C,0.120000*%
G04 APERTURE END LIST*
D10*
X15000000Y-8600000D02*
X15100000Y-8600000D01*
X15000000Y-4800000D02*
X15000000Y-8600000D01*
X20000000Y-4800000D02*
X15000000Y-4800000D01*
X20000000Y-8600000D02*
X20000000Y-4800000D01*
X15100000Y-8600000D02*
X20000000Y-8600000D01*
D11*
D12*
X18105000Y-7515000D02*
X18215000Y-7625000D01*
X18215000Y-7515000D02*
X18105000Y-7625000D01*
X18105000Y-7975000D02*
X18215000Y-8085000D01*
X18215000Y-7975000D02*
X18105000Y-8085000D01*
D13*
X16250000Y-5385000D02*
G75*
G02*
X16130000Y-5385000I-60000J0D01*
G01*
X16130000Y-5385000D02*
G75*
G02*
X16250000Y-5385000I60000J0D01*
G01*
X16900000Y-5385000D02*
G75*
G02*
X16780000Y-5385000I-60000J0D01*
G01*
X16780000Y-5385000D02*
G75*
G02*
X16900000Y-5385000I60000J0D01*
G01*
D11*
X15258277Y-8913984D02*
X15258277Y-8713984D01*
X15258277Y-8713984D02*
X15305896Y-8713984D01*
X15305896Y-8713984D02*
X15334467Y-8723508D01*
X15334467Y-8723508D02*
X15353515Y-8742555D01*
X15353515Y-8742555D02*
X15363039Y-8761603D01*
X15363039Y-8761603D02*
X15372562Y-8799698D01*
X15372562Y-8799698D02*
X15372562Y-8828270D01*
X15372562Y-8828270D02*
X15363039Y-8866365D01*
X15363039Y-8866365D02*
X15353515Y-8885412D01*
X15353515Y-8885412D02*
X15334467Y-8904460D01*
X15334467Y-8904460D02*
X15305896Y-8913984D01*
X15305896Y-8913984D02*
X15258277Y-8913984D01*
X15458277Y-8913984D02*
X15458277Y-8780650D01*
X15458277Y-8818746D02*
X15467801Y-8799698D01*
X15467801Y-8799698D02*
X15477324Y-8790174D01*
X15477324Y-8790174D02*
X15496372Y-8780650D01*
X15496372Y-8780650D02*
X15515420Y-8780650D01*
X15582086Y-8913984D02*
X15582086Y-8780650D01*
X15582086Y-8713984D02*
X15572562Y-8723508D01*
X15572562Y-8723508D02*
X15582086Y-8733031D01*
X15582086Y-8733031D02*
X15591610Y-8723508D01*
X15591610Y-8723508D02*
X15582086Y-8713984D01*
X15582086Y-8713984D02*
X15582086Y-8733031D01*
X15705896Y-8913984D02*
X15686848Y-8904460D01*
X15686848Y-8904460D02*
X15677324Y-8885412D01*
X15677324Y-8885412D02*
X15677324Y-8713984D01*
X15810658Y-8913984D02*
X15791610Y-8904460D01*
X15791610Y-8904460D02*
X15782086Y-8885412D01*
X15782086Y-8885412D02*
X15782086Y-8713984D01*
X16039229Y-8913984D02*
X16039229Y-8713984D01*
X16039229Y-8713984D02*
X16105896Y-8856841D01*
X16105896Y-8856841D02*
X16172562Y-8713984D01*
X16172562Y-8713984D02*
X16172562Y-8913984D01*
X16353515Y-8913984D02*
X16353515Y-8809222D01*
X16353515Y-8809222D02*
X16343991Y-8790174D01*
X16343991Y-8790174D02*
X16324943Y-8780650D01*
X16324943Y-8780650D02*
X16286848Y-8780650D01*
X16286848Y-8780650D02*
X16267801Y-8790174D01*
X16353515Y-8904460D02*
X16334467Y-8913984D01*
X16334467Y-8913984D02*
X16286848Y-8913984D01*
X16286848Y-8913984D02*
X16267801Y-8904460D01*
X16267801Y-8904460D02*
X16258277Y-8885412D01*
X16258277Y-8885412D02*
X16258277Y-8866365D01*
X16258277Y-8866365D02*
X16267801Y-8847317D01*
X16267801Y-8847317D02*
X16286848Y-8837793D01*
X16286848Y-8837793D02*
X16334467Y-8837793D01*
X16334467Y-8837793D02*
X16353515Y-8828270D01*
X16448753Y-8780650D02*
X16448753Y-8980650D01*
X16448753Y-8790174D02*
X16467801Y-8780650D01*
X16467801Y-8780650D02*
X16505896Y-8780650D01*
X16505896Y-8780650D02*
X16524943Y-8790174D01*
X16524943Y-8790174D02*
X16534467Y-8799698D01*
X16534467Y-8799698D02*
X16543991Y-8818746D01*
X16543991Y-8818746D02*
X16543991Y-8875889D01*
X16543991Y-8875889D02*
X16534467Y-8894936D01*
X16534467Y-8894936D02*
X16524943Y-8904460D01*
X16524943Y-8904460D02*
X16505896Y-8913984D01*
X16505896Y-8913984D02*
X16467801Y-8913984D01*
X16467801Y-8913984D02*
X16448753Y-8904460D01*
X16629705Y-8894936D02*
X16639229Y-8904460D01*
X16639229Y-8904460D02*
X16629705Y-8913984D01*
X16629705Y-8913984D02*
X16620182Y-8904460D01*
X16620182Y-8904460D02*
X16629705Y-8894936D01*
X16629705Y-8894936D02*
X16629705Y-8913984D01*
X16629705Y-8790174D02*
X16639229Y-8799698D01*
X16639229Y-8799698D02*
X16629705Y-8809222D01*
X16629705Y-8809222D02*
X16620182Y-8799698D01*
X16620182Y-8799698D02*
X16629705Y-8790174D01*
X16629705Y-8790174D02*
X16629705Y-8809222D01*
D12*
X14887500Y-9187500D02*
X14997500Y-9297500D01*
X14997500Y-9187500D02*
X14887500Y-9297500D01*
D11*
X15363039Y-9333984D02*
X15248753Y-9333984D01*
X15305896Y-9333984D02*
X15305896Y-9133984D01*
X15305896Y-9133984D02*
X15286848Y-9162555D01*
X15286848Y-9162555D02*
X15267801Y-9181603D01*
X15267801Y-9181603D02*
X15248753Y-9191127D01*
X15448753Y-9314936D02*
X15458277Y-9324460D01*
X15458277Y-9324460D02*
X15448753Y-9333984D01*
X15448753Y-9333984D02*
X15439229Y-9324460D01*
X15439229Y-9324460D02*
X15448753Y-9314936D01*
X15448753Y-9314936D02*
X15448753Y-9333984D01*
X15648753Y-9333984D02*
X15534467Y-9333984D01*
X15591610Y-9333984D02*
X15591610Y-9133984D01*
X15591610Y-9133984D02*
X15572562Y-9162555D01*
X15572562Y-9162555D02*
X15553515Y-9181603D01*
X15553515Y-9181603D02*
X15534467Y-9191127D01*
X15772562Y-9133984D02*
X15791610Y-9133984D01*
X15791610Y-9133984D02*
X15810658Y-9143508D01*
X15810658Y-9143508D02*
X15820182Y-9153031D01*
X15820182Y-9153031D02*
X15829705Y-9172079D01*
X15829705Y-9172079D02*
X15839229Y-9210174D01*
X15839229Y-9210174D02*
X15839229Y-9257793D01*
X15839229Y-9257793D02*
X15829705Y-9295889D01*
X15829705Y-9295889D02*
X15820182Y-9314936D01*
X15820182Y-9314936D02*
X15810658Y-9324460D01*
X15810658Y-9324460D02*
X15791610Y-9333984D01*
X15791610Y-9333984D02*
X15772562Y-9333984D01*
X15772562Y-9333984D02*
X15753515Y-9324460D01*
X15753515Y-9324460D02*
X15743991Y-9314936D01*
X15743991Y-9314936D02*
X15734467Y-9295889D01*
X15734467Y-9295889D02*
X15724943Y-9257793D01*
X15724943Y-9257793D02*
X15724943Y-9210174D01*
X15724943Y-9210174D02*
X15734467Y-9172079D01*
X15734467Y-9172079D02*
X15743991Y-9153031D01*
X15743991Y-9153031D02*
X15753515Y-9143508D01*
X15753515Y-9143508D02*
X15772562Y-9133984D01*
X15963039Y-9133984D02*
X15982086Y-9133984D01*
X15982086Y-9133984D02*
X16001134Y-9143508D01*
X16001134Y-9143508D02*
X16010658Y-9153031D01*
X16010658Y-9153031D02*
X16020182Y-9172079D01*
X16020182Y-9172079D02*
X16029705Y-9210174D01*
X16029705Y-9210174D02*
X16029705Y-9257793D01*
X16029705Y-9257793D02*
X16020182Y-9295889D01*
X16020182Y-9295889D02*
X16010658Y-9314936D01*
X16010658Y-9314936D02*
X16001134Y-9324460D01*
X16001134Y-9324460D02*
X15982086Y-9333984D01*
X15982086Y-9333984D02*
X15963039Y-9333984D01*
X15963039Y-9333984D02*
X15943991Y-9324460D01*
X15943991Y-9324460D02*
X15934467Y-9314936D01*
X15934467Y-9314936D02*
X15924943Y-9295889D01*
X15924943Y-9295889D02*
X15915420Y-9257793D01*
X15915420Y-9257793D02*
X15915420Y-9210174D01*
X15915420Y-9210174D02*
X15924943Y-9172079D01*
X15924943Y-9172079D02*
X15934467Y-9153031D01*
X15934467Y-9153031D02*
X15943991Y-9143508D01*
X15943991Y-9143508D02*
X15963039Y-9133984D01*
X16115420Y-9333984D02*
X16115420Y-9200650D01*
X16115420Y-9219698D02*
X16124943Y-9210174D01*
X16124943Y-9210174D02*
X16143991Y-9200650D01*
X16143991Y-9200650D02*
X16172563Y-9200650D01*
X16172563Y-9200650D02*
X16191610Y-9210174D01*
X16191610Y-9210174D02*
X16201134Y-9229222D01*
X16201134Y-9229222D02*
X16201134Y-9333984D01*
X16201134Y-9229222D02*
X16210658Y-9210174D01*
X16210658Y-9210174D02*
X16229705Y-9200650D01*
X16229705Y-9200650D02*
X16258277Y-9200650D01*
X16258277Y-9200650D02*
X16277324Y-9210174D01*
X16277324Y-9210174D02*
X16286848Y-9229222D01*
X16286848Y-9229222D02*
X16286848Y-9333984D01*
X16382086Y-9333984D02*
X16382086Y-9200650D01*
X16382086Y-9219698D02*
X16391610Y-9210174D01*
X16391610Y-9210174D02*
X16410658Y-9200650D01*
X16410658Y-9200650D02*
X16439229Y-9200650D01*
X16439229Y-9200650D02*
X16458277Y-9210174D01*
X16458277Y-9210174D02*
X16467801Y-9229222D01*
X16467801Y-9229222D02*
X16467801Y-9333984D01*
X16467801Y-9229222D02*
X16477324Y-9210174D01*
X16477324Y-9210174D02*
X16496372Y-9200650D01*
X16496372Y-9200650D02*
X16524943Y-9200650D01*
X16524943Y-9200650D02*
X16543991Y-9210174D01*
X16543991Y-9210174D02*
X16553515Y-9229222D01*
X16553515Y-9229222D02*
X16553515Y-9333984D01*
X16943991Y-9124460D02*
X16772563Y-9381603D01*
X17201134Y-9133984D02*
X17220182Y-9133984D01*
X17220182Y-9133984D02*
X17239229Y-9143508D01*
X17239229Y-9143508D02*
X17248753Y-9153031D01*
X17248753Y-9153031D02*
X17258277Y-9172079D01*
X17258277Y-9172079D02*
X17267801Y-9210174D01*
X17267801Y-9210174D02*
X17267801Y-9257793D01*
X17267801Y-9257793D02*
X17258277Y-9295889D01*
X17258277Y-9295889D02*
X17248753Y-9314936D01*
X17248753Y-9314936D02*
X17239229Y-9324460D01*
X17239229Y-9324460D02*
X17220182Y-9333984D01*
X17220182Y-9333984D02*
X17201134Y-9333984D01*
X17201134Y-9333984D02*
X17182087Y-9324460D01*
X17182087Y-9324460D02*
X17172563Y-9314936D01*
X17172563Y-9314936D02*
X17163039Y-9295889D01*
X17163039Y-9295889D02*
X17153515Y-9257793D01*
X17153515Y-9257793D02*
X17153515Y-9210174D01*
X17153515Y-9210174D02*
X17163039Y-9172079D01*
X17163039Y-9172079D02*
X17172563Y-9153031D01*
X17172563Y-9153031D02*
X17182087Y-9143508D01*
X17182087Y-9143508D02*
X17201134Y-9133984D01*
X17353515Y-9314936D02*
X17363039Y-9324460D01*
X17363039Y-9324460D02*
X17353515Y-9333984D01*
X17353515Y-9333984D02*
X17343991Y-9324460D01*
X17343991Y-9324460D02*
X17353515Y-9314936D01*
X17353515Y-9314936D02*
X17353515Y-9333984D01*
X17486848Y-9133984D02*
X17505896Y-9133984D01*
X17505896Y-9133984D02*
X17524944Y-9143508D01*
X17524944Y-9143508D02*
X17534468Y-9153031D01*
X17534468Y-9153031D02*
X17543991Y-9172079D01*
X17543991Y-9172079D02*
X17553515Y-9210174D01*
X17553515Y-9210174D02*
X17553515Y-9257793D01*
X17553515Y-9257793D02*
X17543991Y-9295889D01*
X17543991Y-9295889D02*
X17534468Y-9314936D01*
X17534468Y-9314936D02*
X17524944Y-9324460D01*
X17524944Y-9324460D02*
X17505896Y-9333984D01*
X17505896Y-9333984D02*
X17486848Y-9333984D01*
X17486848Y-9333984D02*
X17467801Y-9324460D01*
X17467801Y-9324460D02*
X17458277Y-9314936D01*
X17458277Y-9314936D02*
X17448753Y-9295889D01*
X17448753Y-9295889D02*
X17439229Y-9257793D01*
X17439229Y-9257793D02*
X17439229Y-9210174D01*
X17439229Y-9210174D02*
X17448753Y-9172079D01*
X17448753Y-9172079D02*
X17458277Y-9153031D01*
X17458277Y-9153031D02*
X17467801Y-9143508D01*
X17467801Y-9143508D02*
X17486848Y-9133984D01*
X17724944Y-9200650D02*
X17724944Y-9333984D01*
X17677325Y-9124460D02*
X17629706Y-9267317D01*
X17629706Y-9267317D02*
X17753515Y-9267317D01*
X17810658Y-9133984D02*
X17934468Y-9133984D01*
X17934468Y-9133984D02*
X17867801Y-9210174D01*
X17867801Y-9210174D02*
X17896372Y-9210174D01*
X17896372Y-9210174D02*
X17915420Y-9219698D01*
X17915420Y-9219698D02*
X17924944Y-9229222D01*
X17924944Y-9229222D02*
X17934468Y-9248270D01*
X17934468Y-9248270D02*
X17934468Y-9295889D01*
X17934468Y-9295889D02*
X17924944Y-9314936D01*
X17924944Y-9314936D02*
X17915420Y-9324460D01*
X17915420Y-9324460D02*
X17896372Y-9333984D01*
X17896372Y-9333984D02*
X17839229Y-9333984D01*
X17839229Y-9333984D02*
X17820182Y-9324460D01*
X17820182Y-9324460D02*
X17810658Y-9314936D01*
X18001134Y-9133984D02*
X18124944Y-9133984D01*
X18124944Y-9133984D02*
X18058277Y-9210174D01*
X18058277Y-9210174D02*
X18086849Y-9210174D01*
X18086849Y-9210174D02*
X18105896Y-9219698D01*
X18105896Y-9219698D02*
X18115420Y-9229222D01*
X18115420Y-9229222D02*
X18124944Y-9248270D01*
X18124944Y-9248270D02*
X18124944Y-9295889D01*
X18124944Y-9295889D02*
X18115420Y-9314936D01*
X18115420Y-9314936D02*
X18105896Y-9324460D01*
X18105896Y-9324460D02*
X18086849Y-9333984D01*
X18086849Y-9333984D02*
X18029706Y-9333984D01*
X18029706Y-9333984D02*
X18010658Y-9324460D01*
X18010658Y-9324460D02*
X18001134Y-9314936D01*
X18201134Y-9133984D02*
X18201134Y-9172079D01*
X18277325Y-9133984D02*
X18277325Y-9172079D01*
X18572563Y-9410174D02*
X18563039Y-9400650D01*
X18563039Y-9400650D02*
X18543991Y-9372079D01*
X18543991Y-9372079D02*
X18534468Y-9353031D01*
X18534468Y-9353031D02*
X18524944Y-9324460D01*
X18524944Y-9324460D02*
X18515420Y-9276841D01*
X18515420Y-9276841D02*
X18515420Y-9238746D01*
X18515420Y-9238746D02*
X18524944Y-9191127D01*
X18524944Y-9191127D02*
X18534468Y-9162555D01*
X18534468Y-9162555D02*
X18543991Y-9143508D01*
X18543991Y-9143508D02*
X18563039Y-9114936D01*
X18563039Y-9114936D02*
X18572563Y-9105412D01*
X18639230Y-9153031D02*
X18648753Y-9143508D01*
X18648753Y-9143508D02*
X18667801Y-9133984D01*
X18667801Y-9133984D02*
X18715420Y-9133984D01*
X18715420Y-9133984D02*
X18734468Y-9143508D01*
X18734468Y-9143508D02*
X18743991Y-9153031D01*
X18743991Y-9153031D02*
X18753515Y-9172079D01*
X18753515Y-9172079D02*
X18753515Y-9191127D01*
X18753515Y-9191127D02*
X18743991Y-9219698D01*
X18743991Y-9219698D02*
X18629706Y-9333984D01*
X18629706Y-9333984D02*
X18753515Y-9333984D01*
X18991611Y-9333984D02*
X18991611Y-9133984D01*
X19077325Y-9333984D02*
X19077325Y-9229222D01*
X19077325Y-9229222D02*
X19067801Y-9210174D01*
X19067801Y-9210174D02*
X19048753Y-9200650D01*
X19048753Y-9200650D02*
X19020182Y-9200650D01*
X19020182Y-9200650D02*
X19001134Y-9210174D01*
X19001134Y-9210174D02*
X18991611Y-9219698D01*
X19201134Y-9333984D02*
X19182087Y-9324460D01*
X19182087Y-9324460D02*
X19172563Y-9314936D01*
X19172563Y-9314936D02*
X19163039Y-9295889D01*
X19163039Y-9295889D02*
X19163039Y-9238746D01*
X19163039Y-9238746D02*
X19172563Y-9219698D01*
X19172563Y-9219698D02*
X19182087Y-9210174D01*
X19182087Y-9210174D02*
X19201134Y-9200650D01*
X19201134Y-9200650D02*
X19229706Y-9200650D01*
X19229706Y-9200650D02*
X19248753Y-9210174D01*
X19248753Y-9210174D02*
X19258277Y-9219698D01*
X19258277Y-9219698D02*
X19267801Y-9238746D01*
X19267801Y-9238746D02*
X19267801Y-9295889D01*
X19267801Y-9295889D02*
X19258277Y-9314936D01*
X19258277Y-9314936D02*
X19248753Y-9324460D01*
X19248753Y-9324460D02*
X19229706Y-9333984D01*
X19229706Y-9333984D02*
X19201134Y-9333984D01*
X19382087Y-9333984D02*
X19363039Y-9324460D01*
X19363039Y-9324460D02*
X19353515Y-9305412D01*
X19353515Y-9305412D02*
X19353515Y-9133984D01*
X19534468Y-9324460D02*
X19515420Y-9333984D01*
X19515420Y-9333984D02*
X19477325Y-9333984D01*
X19477325Y-9333984D02*
X19458277Y-9324460D01*
X19458277Y-9324460D02*
X19448753Y-9305412D01*
X19448753Y-9305412D02*
X19448753Y-9229222D01*
X19448753Y-9229222D02*
X19458277Y-9210174D01*
X19458277Y-9210174D02*
X19477325Y-9200650D01*
X19477325Y-9200650D02*
X19515420Y-9200650D01*
X19515420Y-9200650D02*
X19534468Y-9210174D01*
X19534468Y-9210174D02*
X19543992Y-9229222D01*
X19543992Y-9229222D02*
X19543992Y-9248270D01*
X19543992Y-9248270D02*
X19448753Y-9267317D01*
X19620182Y-9324460D02*
X19639230Y-9333984D01*
X19639230Y-9333984D02*
X19677325Y-9333984D01*
X19677325Y-9333984D02*
X19696373Y-9324460D01*
X19696373Y-9324460D02*
X19705896Y-9305412D01*
X19705896Y-9305412D02*
X19705896Y-9295889D01*
X19705896Y-9295889D02*
X19696373Y-9276841D01*
X19696373Y-9276841D02*
X19677325Y-9267317D01*
X19677325Y-9267317D02*
X19648753Y-9267317D01*
X19648753Y-9267317D02*
X19629706Y-9257793D01*
X19629706Y-9257793D02*
X19620182Y-9238746D01*
X19620182Y-9238746D02*
X19620182Y-9229222D01*
X19620182Y-9229222D02*
X19629706Y-9210174D01*
X19629706Y-9210174D02*
X19648753Y-9200650D01*
X19648753Y-9200650D02*
X19677325Y-9200650D01*
X19677325Y-9200650D02*
X19696373Y-9210174D01*
X19772563Y-9410174D02*
X19782087Y-9400650D01*
X19782087Y-9400650D02*
X19801134Y-9372079D01*
X19801134Y-9372079D02*
X19810658Y-9353031D01*
X19810658Y-9353031D02*
X19820182Y-9324460D01*
X19820182Y-9324460D02*
X19829706Y-9276841D01*
X19829706Y-9276841D02*
X19829706Y-9238746D01*
X19829706Y-9238746D02*
X19820182Y-9191127D01*
X19820182Y-9191127D02*
X19810658Y-9162555D01*
X19810658Y-9162555D02*
X19801134Y-9143508D01*
X19801134Y-9143508D02*
X19782087Y-9114936D01*
X19782087Y-9114936D02*
X19772563Y-9105412D01*
X20134468Y-9410174D02*
X20124944Y-9400650D01*
X20124944Y-9400650D02*
X20105896Y-9372079D01*
X20105896Y-9372079D02*
X20096373Y-9353031D01*
X20096373Y-9353031D02*
X20086849Y-9324460D01*
X20086849Y-9324460D02*
X20077325Y-9276841D01*
X20077325Y-9276841D02*
X20077325Y-9238746D01*
X20077325Y-9238746D02*
X20086849Y-9191127D01*
X20086849Y-9191127D02*
X20096373Y-9162555D01*
X20096373Y-9162555D02*
X20105896Y-9143508D01*
X20105896Y-9143508D02*
X20124944Y-9114936D01*
X20124944Y-9114936D02*
X20134468Y-9105412D01*
X20210658Y-9200650D02*
X20210658Y-9333984D01*
X20210658Y-9219698D02*
X20220182Y-9210174D01*
X20220182Y-9210174D02*
X20239230Y-9200650D01*
X20239230Y-9200650D02*
X20267801Y-9200650D01*
X20267801Y-9200650D02*
X20286849Y-9210174D01*
X20286849Y-9210174D02*
X20296373Y-9229222D01*
X20296373Y-9229222D02*
X20296373Y-9333984D01*
X20420182Y-9333984D02*
X20401134Y-9324460D01*
X20401134Y-9324460D02*
X20391611Y-9314936D01*
X20391611Y-9314936D02*
X20382087Y-9295889D01*
X20382087Y-9295889D02*
X20382087Y-9238746D01*
X20382087Y-9238746D02*
X20391611Y-9219698D01*
X20391611Y-9219698D02*
X20401134Y-9210174D01*
X20401134Y-9210174D02*
X20420182Y-9200650D01*
X20420182Y-9200650D02*
X20448754Y-9200650D01*
X20448754Y-9200650D02*
X20467801Y-9210174D01*
X20467801Y-9210174D02*
X20477325Y-9219698D01*
X20477325Y-9219698D02*
X20486849Y-9238746D01*
X20486849Y-9238746D02*
X20486849Y-9295889D01*
X20486849Y-9295889D02*
X20477325Y-9314936D01*
X20477325Y-9314936D02*
X20467801Y-9324460D01*
X20467801Y-9324460D02*
X20448754Y-9333984D01*
X20448754Y-9333984D02*
X20420182Y-9333984D01*
X20543992Y-9200650D02*
X20620182Y-9200650D01*
X20572563Y-9133984D02*
X20572563Y-9305412D01*
X20572563Y-9305412D02*
X20582087Y-9324460D01*
X20582087Y-9324460D02*
X20601134Y-9333984D01*
X20601134Y-9333984D02*
X20620182Y-9333984D01*
X20839230Y-9200650D02*
X20839230Y-9400650D01*
X20839230Y-9210174D02*
X20858277Y-9200650D01*
X20858277Y-9200650D02*
X20896373Y-9200650D01*
X20896373Y-9200650D02*
X20915420Y-9210174D01*
X20915420Y-9210174D02*
X20924944Y-9219698D01*
X20924944Y-9219698D02*
X20934468Y-9238746D01*
X20934468Y-9238746D02*
X20934468Y-9295889D01*
X20934468Y-9295889D02*
X20924944Y-9314936D01*
X20924944Y-9314936D02*
X20915420Y-9324460D01*
X20915420Y-9324460D02*
X20896373Y-9333984D01*
X20896373Y-9333984D02*
X20858277Y-9333984D01*
X20858277Y-9333984D02*
X20839230Y-9324460D01*
X21048754Y-9333984D02*
X21029706Y-9324460D01*
X21029706Y-9324460D02*
X21020182Y-9305412D01*
X21020182Y-9305412D02*
X21020182Y-9133984D01*
X21210658Y-9333984D02*
X21210658Y-9229222D01*
X21210658Y-9229222D02*
X21201135Y-9210174D01*
X21201135Y-9210174D02*
X21182087Y-9200650D01*
X21182087Y-9200650D02*
X21143992Y-9200650D01*
X21143992Y-9200650D02*
X21124944Y-9210174D01*
X21210658Y-9324460D02*
X21191611Y-9333984D01*
X21191611Y-9333984D02*
X21143992Y-9333984D01*
X21143992Y-9333984D02*
X21124944Y-9324460D01*
X21124944Y-9324460D02*
X21115420Y-9305412D01*
X21115420Y-9305412D02*
X21115420Y-9286365D01*
X21115420Y-9286365D02*
X21124944Y-9267317D01*
X21124944Y-9267317D02*
X21143992Y-9257793D01*
X21143992Y-9257793D02*
X21191611Y-9257793D01*
X21191611Y-9257793D02*
X21210658Y-9248270D01*
X21277325Y-9200650D02*
X21353515Y-9200650D01*
X21305896Y-9133984D02*
X21305896Y-9305412D01*
X21305896Y-9305412D02*
X21315420Y-9324460D01*
X21315420Y-9324460D02*
X21334468Y-9333984D01*
X21334468Y-9333984D02*
X21353515Y-9333984D01*
X21496373Y-9324460D02*
X21477325Y-9333984D01*
X21477325Y-9333984D02*
X21439230Y-9333984D01*
X21439230Y-9333984D02*
X21420182Y-9324460D01*
X21420182Y-9324460D02*
X21410658Y-9305412D01*
X21410658Y-9305412D02*
X21410658Y-9229222D01*
X21410658Y-9229222D02*
X21420182Y-9210174D01*
X21420182Y-9210174D02*
X21439230Y-9200650D01*
X21439230Y-9200650D02*
X21477325Y-9200650D01*
X21477325Y-9200650D02*
X21496373Y-9210174D01*
X21496373Y-9210174D02*
X21505896Y-9229222D01*
X21505896Y-9229222D02*
X21505896Y-9248270D01*
X21505896Y-9248270D02*
X21410658Y-9267317D01*
X21677325Y-9333984D02*
X21677325Y-9133984D01*
X21677325Y-9324460D02*
X21658277Y-9333984D01*
X21658277Y-9333984D02*
X21620182Y-9333984D01*
X21620182Y-9333984D02*
X21601135Y-9324460D01*
X21601135Y-9324460D02*
X21591611Y-9314936D01*
X21591611Y-9314936D02*
X21582087Y-9295889D01*
X21582087Y-9295889D02*
X21582087Y-9238746D01*
X21582087Y-9238746D02*
X21591611Y-9219698D01*
X21591611Y-9219698D02*
X21601135Y-9210174D01*
X21601135Y-9210174D02*
X21620182Y-9200650D01*
X21620182Y-9200650D02*
X21658277Y-9200650D01*
X21658277Y-9200650D02*
X21677325Y-9210174D01*
X21753516Y-9410174D02*
X21763039Y-9400650D01*
X21763039Y-9400650D02*
X21782087Y-9372079D01*
X21782087Y-9372079D02*
X21791611Y-9353031D01*
X21791611Y-9353031D02*
X21801135Y-9324460D01*
X21801135Y-9324460D02*
X21810658Y-9276841D01*
X21810658Y-9276841D02*
X21810658Y-9238746D01*
X21810658Y-9238746D02*
X21801135Y-9191127D01*
X21801135Y-9191127D02*
X21791611Y-9162555D01*
X21791611Y-9162555D02*
X21782087Y-9143508D01*
X21782087Y-9143508D02*
X21763039Y-9114936D01*
X21763039Y-9114936D02*
X21753516Y-9105412D01*
D13*
X14997500Y-9506500D02*
G75*
G02*
X14877500Y-9506500I-60000J0D01*
G01*
X14877500Y-9506500D02*
G75*
G02*
X14997500Y-9506500I60000J0D01*
G01*
D11*
X15363039Y-9597984D02*
X15248753Y-9597984D01*
X15305896Y-9597984D02*
X15305896Y-9397984D01*
X15305896Y-9397984D02*
X15286848Y-9426555D01*
X15286848Y-9426555D02*
X15267801Y-9445603D01*
X15267801Y-9445603D02*
X15248753Y-9455127D01*
X15448753Y-9578936D02*
X15458277Y-9588460D01*
X15458277Y-9588460D02*
X15448753Y-9597984D01*
X15448753Y-9597984D02*
X15439229Y-9588460D01*
X15439229Y-9588460D02*
X15448753Y-9578936D01*
X15448753Y-9578936D02*
X15448753Y-9597984D01*
X15534467Y-9417031D02*
X15543991Y-9407508D01*
X15543991Y-9407508D02*
X15563039Y-9397984D01*
X15563039Y-9397984D02*
X15610658Y-9397984D01*
X15610658Y-9397984D02*
X15629705Y-9407508D01*
X15629705Y-9407508D02*
X15639229Y-9417031D01*
X15639229Y-9417031D02*
X15648753Y-9436079D01*
X15648753Y-9436079D02*
X15648753Y-9455127D01*
X15648753Y-9455127D02*
X15639229Y-9483698D01*
X15639229Y-9483698D02*
X15524943Y-9597984D01*
X15524943Y-9597984D02*
X15648753Y-9597984D01*
X15772562Y-9397984D02*
X15791610Y-9397984D01*
X15791610Y-9397984D02*
X15810658Y-9407508D01*
X15810658Y-9407508D02*
X15820182Y-9417031D01*
X15820182Y-9417031D02*
X15829705Y-9436079D01*
X15829705Y-9436079D02*
X15839229Y-9474174D01*
X15839229Y-9474174D02*
X15839229Y-9521793D01*
X15839229Y-9521793D02*
X15829705Y-9559889D01*
X15829705Y-9559889D02*
X15820182Y-9578936D01*
X15820182Y-9578936D02*
X15810658Y-9588460D01*
X15810658Y-9588460D02*
X15791610Y-9597984D01*
X15791610Y-9597984D02*
X15772562Y-9597984D01*
X15772562Y-9597984D02*
X15753515Y-9588460D01*
X15753515Y-9588460D02*
X15743991Y-9578936D01*
X15743991Y-9578936D02*
X15734467Y-9559889D01*
X15734467Y-9559889D02*
X15724943Y-9521793D01*
X15724943Y-9521793D02*
X15724943Y-9474174D01*
X15724943Y-9474174D02*
X15734467Y-9436079D01*
X15734467Y-9436079D02*
X15743991Y-9417031D01*
X15743991Y-9417031D02*
X15753515Y-9407508D01*
X15753515Y-9407508D02*
X15772562Y-9397984D01*
X15963039Y-9397984D02*
X15982086Y-9397984D01*
X15982086Y-9397984D02*
X16001134Y-9407508D01*
X16001134Y-9407508D02*
X16010658Y-9417031D01*
X16010658Y-9417031D02*
X16020182Y-9436079D01*
X16020182Y-9436079D02*
X16029705Y-9474174D01*
X16029705Y-9474174D02*
X16029705Y-9521793D01*
X16029705Y-9521793D02*
X16020182Y-9559889D01*
X16020182Y-9559889D02*
X16010658Y-9578936D01*
X16010658Y-9578936D02*
X16001134Y-9588460D01*
X16001134Y-9588460D02*
X15982086Y-9597984D01*
X15982086Y-9597984D02*
X15963039Y-9597984D01*
X15963039Y-9597984D02*
X15943991Y-9588460D01*
X15943991Y-9588460D02*
X15934467Y-9578936D01*
X15934467Y-9578936D02*
X15924943Y-9559889D01*
X15924943Y-9559889D02*
X15915420Y-9521793D01*
X15915420Y-9521793D02*
X15915420Y-9474174D01*
X15915420Y-9474174D02*
X15924943Y-9436079D01*
X15924943Y-9436079D02*
X15934467Y-9417031D01*
X15934467Y-9417031D02*
X15943991Y-9407508D01*
X15943991Y-9407508D02*
X15963039Y-9397984D01*
X16115420Y-9597984D02*
X16115420Y-9464650D01*
X16115420Y-9483698D02*
X16124943Y-9474174D01*
X16124943Y-9474174D02*
X16143991Y-9464650D01*
X16143991Y-9464650D02*
X16172563Y-9464650D01*
X16172563Y-9464650D02*
X16191610Y-9474174D01*
X16191610Y-9474174D02*
X16201134Y-9493222D01*
X16201134Y-9493222D02*
X16201134Y-9597984D01*
X16201134Y-9493222D02*
X16210658Y-9474174D01*
X16210658Y-9474174D02*
X16229705Y-9464650D01*
X16229705Y-9464650D02*
X16258277Y-9464650D01*
X16258277Y-9464650D02*
X16277324Y-9474174D01*
X16277324Y-9474174D02*
X16286848Y-9493222D01*
X16286848Y-9493222D02*
X16286848Y-9597984D01*
X16382086Y-9597984D02*
X16382086Y-9464650D01*
X16382086Y-9483698D02*
X16391610Y-9474174D01*
X16391610Y-9474174D02*
X16410658Y-9464650D01*
X16410658Y-9464650D02*
X16439229Y-9464650D01*
X16439229Y-9464650D02*
X16458277Y-9474174D01*
X16458277Y-9474174D02*
X16467801Y-9493222D01*
X16467801Y-9493222D02*
X16467801Y-9597984D01*
X16467801Y-9493222D02*
X16477324Y-9474174D01*
X16477324Y-9474174D02*
X16496372Y-9464650D01*
X16496372Y-9464650D02*
X16524943Y-9464650D01*
X16524943Y-9464650D02*
X16543991Y-9474174D01*
X16543991Y-9474174D02*
X16553515Y-9493222D01*
X16553515Y-9493222D02*
X16553515Y-9597984D01*
X16943991Y-9388460D02*
X16772563Y-9645603D01*
X17201134Y-9397984D02*
X17220182Y-9397984D01*
X17220182Y-9397984D02*
X17239229Y-9407508D01*
X17239229Y-9407508D02*
X17248753Y-9417031D01*
X17248753Y-9417031D02*
X17258277Y-9436079D01*
X17258277Y-9436079D02*
X17267801Y-9474174D01*
X17267801Y-9474174D02*
X17267801Y-9521793D01*
X17267801Y-9521793D02*
X17258277Y-9559889D01*
X17258277Y-9559889D02*
X17248753Y-9578936D01*
X17248753Y-9578936D02*
X17239229Y-9588460D01*
X17239229Y-9588460D02*
X17220182Y-9597984D01*
X17220182Y-9597984D02*
X17201134Y-9597984D01*
X17201134Y-9597984D02*
X17182087Y-9588460D01*
X17182087Y-9588460D02*
X17172563Y-9578936D01*
X17172563Y-9578936D02*
X17163039Y-9559889D01*
X17163039Y-9559889D02*
X17153515Y-9521793D01*
X17153515Y-9521793D02*
X17153515Y-9474174D01*
X17153515Y-9474174D02*
X17163039Y-9436079D01*
X17163039Y-9436079D02*
X17172563Y-9417031D01*
X17172563Y-9417031D02*
X17182087Y-9407508D01*
X17182087Y-9407508D02*
X17201134Y-9397984D01*
X17353515Y-9578936D02*
X17363039Y-9588460D01*
X17363039Y-9588460D02*
X17353515Y-9597984D01*
X17353515Y-9597984D02*
X17343991Y-9588460D01*
X17343991Y-9588460D02*
X17353515Y-9578936D01*
X17353515Y-9578936D02*
X17353515Y-9597984D01*
X17486848Y-9397984D02*
X17505896Y-9397984D01*
X17505896Y-9397984D02*
X17524944Y-9407508D01*
X17524944Y-9407508D02*
X17534468Y-9417031D01*
X17534468Y-9417031D02*
X17543991Y-9436079D01*
X17543991Y-9436079D02*
X17553515Y-9474174D01*
X17553515Y-9474174D02*
X17553515Y-9521793D01*
X17553515Y-9521793D02*
X17543991Y-9559889D01*
X17543991Y-9559889D02*
X17534468Y-9578936D01*
X17534468Y-9578936D02*
X17524944Y-9588460D01*
X17524944Y-9588460D02*
X17505896Y-9597984D01*
X17505896Y-9597984D02*
X17486848Y-9597984D01*
X17486848Y-9597984D02*
X17467801Y-9588460D01*
X17467801Y-9588460D02*
X17458277Y-9578936D01*
X17458277Y-9578936D02*
X17448753Y-9559889D01*
X17448753Y-9559889D02*
X17439229Y-9521793D01*
X17439229Y-9521793D02*
X17439229Y-9474174D01*
X17439229Y-9474174D02*
X17448753Y-9436079D01*
X17448753Y-9436079D02*
X17458277Y-9417031D01*
X17458277Y-9417031D02*
X17467801Y-9407508D01*
X17467801Y-9407508D02*
X17486848Y-9397984D01*
X17724944Y-9464650D02*
X17724944Y-9597984D01*
X17677325Y-9388460D02*
X17629706Y-9531317D01*
X17629706Y-9531317D02*
X17753515Y-9531317D01*
X17810658Y-9397984D02*
X17943991Y-9397984D01*
X17943991Y-9397984D02*
X17858277Y-9597984D01*
X18010658Y-9417031D02*
X18020182Y-9407508D01*
X18020182Y-9407508D02*
X18039229Y-9397984D01*
X18039229Y-9397984D02*
X18086849Y-9397984D01*
X18086849Y-9397984D02*
X18105896Y-9407508D01*
X18105896Y-9407508D02*
X18115420Y-9417031D01*
X18115420Y-9417031D02*
X18124944Y-9436079D01*
X18124944Y-9436079D02*
X18124944Y-9455127D01*
X18124944Y-9455127D02*
X18115420Y-9483698D01*
X18115420Y-9483698D02*
X18001134Y-9597984D01*
X18001134Y-9597984D02*
X18124944Y-9597984D01*
X18201134Y-9397984D02*
X18201134Y-9436079D01*
X18277325Y-9397984D02*
X18277325Y-9436079D01*
X18572563Y-9674174D02*
X18563039Y-9664650D01*
X18563039Y-9664650D02*
X18543991Y-9636079D01*
X18543991Y-9636079D02*
X18534468Y-9617031D01*
X18534468Y-9617031D02*
X18524944Y-9588460D01*
X18524944Y-9588460D02*
X18515420Y-9540841D01*
X18515420Y-9540841D02*
X18515420Y-9502746D01*
X18515420Y-9502746D02*
X18524944Y-9455127D01*
X18524944Y-9455127D02*
X18534468Y-9426555D01*
X18534468Y-9426555D02*
X18543991Y-9407508D01*
X18543991Y-9407508D02*
X18563039Y-9378936D01*
X18563039Y-9378936D02*
X18572563Y-9369412D01*
X18639230Y-9417031D02*
X18648753Y-9407508D01*
X18648753Y-9407508D02*
X18667801Y-9397984D01*
X18667801Y-9397984D02*
X18715420Y-9397984D01*
X18715420Y-9397984D02*
X18734468Y-9407508D01*
X18734468Y-9407508D02*
X18743991Y-9417031D01*
X18743991Y-9417031D02*
X18753515Y-9436079D01*
X18753515Y-9436079D02*
X18753515Y-9455127D01*
X18753515Y-9455127D02*
X18743991Y-9483698D01*
X18743991Y-9483698D02*
X18629706Y-9597984D01*
X18629706Y-9597984D02*
X18753515Y-9597984D01*
X18991611Y-9597984D02*
X18991611Y-9397984D01*
X19077325Y-9597984D02*
X19077325Y-9493222D01*
X19077325Y-9493222D02*
X19067801Y-9474174D01*
X19067801Y-9474174D02*
X19048753Y-9464650D01*
X19048753Y-9464650D02*
X19020182Y-9464650D01*
X19020182Y-9464650D02*
X19001134Y-9474174D01*
X19001134Y-9474174D02*
X18991611Y-9483698D01*
X19201134Y-9597984D02*
X19182087Y-9588460D01*
X19182087Y-9588460D02*
X19172563Y-9578936D01*
X19172563Y-9578936D02*
X19163039Y-9559889D01*
X19163039Y-9559889D02*
X19163039Y-9502746D01*
X19163039Y-9502746D02*
X19172563Y-9483698D01*
X19172563Y-9483698D02*
X19182087Y-9474174D01*
X19182087Y-9474174D02*
X19201134Y-9464650D01*
X19201134Y-9464650D02*
X19229706Y-9464650D01*
X19229706Y-9464650D02*
X19248753Y-9474174D01*
X19248753Y-9474174D02*
X19258277Y-9483698D01*
X19258277Y-9483698D02*
X19267801Y-9502746D01*
X19267801Y-9502746D02*
X19267801Y-9559889D01*
X19267801Y-9559889D02*
X19258277Y-9578936D01*
X19258277Y-9578936D02*
X19248753Y-9588460D01*
X19248753Y-9588460D02*
X19229706Y-9597984D01*
X19229706Y-9597984D02*
X19201134Y-9597984D01*
X19382087Y-9597984D02*
X19363039Y-9588460D01*
X19363039Y-9588460D02*
X19353515Y-9569412D01*
X19353515Y-9569412D02*
X19353515Y-9397984D01*
X19534468Y-9588460D02*
X19515420Y-9597984D01*
X19515420Y-9597984D02*
X19477325Y-9597984D01*
X19477325Y-9597984D02*
X19458277Y-9588460D01*
X19458277Y-9588460D02*
X19448753Y-9569412D01*
X19448753Y-9569412D02*
X19448753Y-9493222D01*
X19448753Y-9493222D02*
X19458277Y-9474174D01*
X19458277Y-9474174D02*
X19477325Y-9464650D01*
X19477325Y-9464650D02*
X19515420Y-9464650D01*
X19515420Y-9464650D02*
X19534468Y-9474174D01*
X19534468Y-9474174D02*
X19543992Y-9493222D01*
X19543992Y-9493222D02*
X19543992Y-9512270D01*
X19543992Y-9512270D02*
X19448753Y-9531317D01*
X19620182Y-9588460D02*
X19639230Y-9597984D01*
X19639230Y-9597984D02*
X19677325Y-9597984D01*
X19677325Y-9597984D02*
X19696373Y-9588460D01*
X19696373Y-9588460D02*
X19705896Y-9569412D01*
X19705896Y-9569412D02*
X19705896Y-9559889D01*
X19705896Y-9559889D02*
X19696373Y-9540841D01*
X19696373Y-9540841D02*
X19677325Y-9531317D01*
X19677325Y-9531317D02*
X19648753Y-9531317D01*
X19648753Y-9531317D02*
X19629706Y-9521793D01*
X19629706Y-9521793D02*
X19620182Y-9502746D01*
X19620182Y-9502746D02*
X19620182Y-9493222D01*
X19620182Y-9493222D02*
X19629706Y-9474174D01*
X19629706Y-9474174D02*
X19648753Y-9464650D01*
X19648753Y-9464650D02*
X19677325Y-9464650D01*
X19677325Y-9464650D02*
X19696373Y-9474174D01*
X19772563Y-9674174D02*
X19782087Y-9664650D01*
X19782087Y-9664650D02*
X19801134Y-9636079D01*
X19801134Y-9636079D02*
X19810658Y-9617031D01*
X19810658Y-9617031D02*
X19820182Y-9588460D01*
X19820182Y-9588460D02*
X19829706Y-9540841D01*
X19829706Y-9540841D02*
X19829706Y-9502746D01*
X19829706Y-9502746D02*
X19820182Y-9455127D01*
X19820182Y-9455127D02*
X19810658Y-9426555D01*
X19810658Y-9426555D02*
X19801134Y-9407508D01*
X19801134Y-9407508D02*
X19782087Y-9378936D01*
X19782087Y-9378936D02*
X19772563Y-9369412D01*
X20134468Y-9674174D02*
X20124944Y-9664650D01*
X20124944Y-9664650D02*
X20105896Y-9636079D01*
X20105896Y-9636079D02*
X20096373Y-9617031D01*
X20096373Y-9617031D02*
X20086849Y-9588460D01*
X20086849Y-9588460D02*
X20077325Y-9540841D01*
X20077325Y-9540841D02*
X20077325Y-9502746D01*
X20077325Y-9502746D02*
X20086849Y-9455127D01*
X20086849Y-9455127D02*
X20096373Y-9426555D01*
X20096373Y-9426555D02*
X20105896Y-9407508D01*
X20105896Y-9407508D02*
X20124944Y-9378936D01*
X20124944Y-9378936D02*
X20134468Y-9369412D01*
X20210658Y-9464650D02*
X20210658Y-9597984D01*
X20210658Y-9483698D02*
X20220182Y-9474174D01*
X20220182Y-9474174D02*
X20239230Y-9464650D01*
X20239230Y-9464650D02*
X20267801Y-9464650D01*
X20267801Y-9464650D02*
X20286849Y-9474174D01*
X20286849Y-9474174D02*
X20296373Y-9493222D01*
X20296373Y-9493222D02*
X20296373Y-9597984D01*
X20420182Y-9597984D02*
X20401134Y-9588460D01*
X20401134Y-9588460D02*
X20391611Y-9578936D01*
X20391611Y-9578936D02*
X20382087Y-9559889D01*
X20382087Y-9559889D02*
X20382087Y-9502746D01*
X20382087Y-9502746D02*
X20391611Y-9483698D01*
X20391611Y-9483698D02*
X20401134Y-9474174D01*
X20401134Y-9474174D02*
X20420182Y-9464650D01*
X20420182Y-9464650D02*
X20448754Y-9464650D01*
X20448754Y-9464650D02*
X20467801Y-9474174D01*
X20467801Y-9474174D02*
X20477325Y-9483698D01*
X20477325Y-9483698D02*
X20486849Y-9502746D01*
X20486849Y-9502746D02*
X20486849Y-9559889D01*
X20486849Y-9559889D02*
X20477325Y-9578936D01*
X20477325Y-9578936D02*
X20467801Y-9588460D01*
X20467801Y-9588460D02*
X20448754Y-9597984D01*
X20448754Y-9597984D02*
X20420182Y-9597984D01*
X20543992Y-9464650D02*
X20620182Y-9464650D01*
X20572563Y-9397984D02*
X20572563Y-9569412D01*
X20572563Y-9569412D02*
X20582087Y-9588460D01*
X20582087Y-9588460D02*
X20601134Y-9597984D01*
X20601134Y-9597984D02*
X20620182Y-9597984D01*
X20839230Y-9464650D02*
X20839230Y-9664650D01*
X20839230Y-9474174D02*
X20858277Y-9464650D01*
X20858277Y-9464650D02*
X20896373Y-9464650D01*
X20896373Y-9464650D02*
X20915420Y-9474174D01*
X20915420Y-9474174D02*
X20924944Y-9483698D01*
X20924944Y-9483698D02*
X20934468Y-9502746D01*
X20934468Y-9502746D02*
X20934468Y-9559889D01*
X20934468Y-9559889D02*
X20924944Y-9578936D01*
X20924944Y-9578936D02*
X20915420Y-9588460D01*
X20915420Y-9588460D02*
X20896373Y-9597984D01*
X20896373Y-9597984D02*
X20858277Y-9597984D01*
X20858277Y-9597984D02*
X20839230Y-9588460D01*
X21048754Y-9597984D02*
X21029706Y-9588460D01*
X21029706Y-9588460D02*
X21020182Y-9569412D01*
X21020182Y-9569412D02*
X21020182Y-9397984D01*
X21210658Y-9597984D02*
X21210658Y-9493222D01*
X21210658Y-9493222D02*
X21201135Y-9474174D01*
X21201135Y-9474174D02*
X21182087Y-9464650D01*
X21182087Y-9464650D02*
X21143992Y-9464650D01*
X21143992Y-9464650D02*
X21124944Y-9474174D01*
X21210658Y-9588460D02*
X21191611Y-9597984D01*
X21191611Y-9597984D02*
X21143992Y-9597984D01*
X21143992Y-9597984D02*
X21124944Y-9588460D01*
X21124944Y-9588460D02*
X21115420Y-9569412D01*
X21115420Y-9569412D02*
X21115420Y-9550365D01*
X21115420Y-9550365D02*
X21124944Y-9531317D01*
X21124944Y-9531317D02*
X21143992Y-9521793D01*
X21143992Y-9521793D02*
X21191611Y-9521793D01*
X21191611Y-9521793D02*
X21210658Y-9512270D01*
X21277325Y-9464650D02*
X21353515Y-9464650D01*
X21305896Y-9397984D02*
X21305896Y-9569412D01*
X21305896Y-9569412D02*
X21315420Y-9588460D01*
X21315420Y-9588460D02*
X21334468Y-9597984D01*
X21334468Y-9597984D02*
X21353515Y-9597984D01*
X21496373Y-9588460D02*
X21477325Y-9597984D01*
X21477325Y-9597984D02*
X21439230Y-9597984D01*
X21439230Y-9597984D02*
X21420182Y-9588460D01*
X21420182Y-9588460D02*
X21410658Y-9569412D01*
X21410658Y-9569412D02*
X21410658Y-9493222D01*
X21410658Y-9493222D02*
X21420182Y-9474174D01*
X21420182Y-9474174D02*
X21439230Y-9464650D01*
X21439230Y-9464650D02*
X21477325Y-9464650D01*
X21477325Y-9464650D02*
X21496373Y-9474174D01*
X21496373Y-9474174D02*
X21505896Y-9493222D01*
X21505896Y-9493222D02*
X21505896Y-9512270D01*
X21505896Y-9512270D02*
X21410658Y-9531317D01*
X21677325Y-9597984D02*
X21677325Y-9397984D01*
X21677325Y-9588460D02*
X21658277Y-9597984D01*
X21658277Y-9597984D02*
X21620182Y-9597984D01*
X21620182Y-9597984D02*
X21601135Y-9588460D01*
X21601135Y-9588460D02*
X21591611Y-9578936D01*
X21591611Y-9578936D02*
X21582087Y-9559889D01*
X21582087Y-9559889D02*
X21582087Y-9502746D01*
X21582087Y-9502746D02*
X21591611Y-9483698D01*
X21591611Y-9483698D02*
X21601135Y-9474174D01*
X21601135Y-9474174D02*
X21620182Y-9464650D01*
X21620182Y-9464650D02*
X21658277Y-9464650D01*
X21658277Y-9464650D02*
X21677325Y-9474174D01*
X21753516Y-9674174D02*
X21763039Y-9664650D01*
X21763039Y-9664650D02*
X21782087Y-9636079D01*
X21782087Y-9636079D02*
X21791611Y-9617031D01*
X21791611Y-9617031D02*
X21801135Y-9588460D01*
X21801135Y-9588460D02*
X21810658Y-9540841D01*
X21810658Y-9540841D02*
X21810658Y-9502746D01*
X21810658Y-9502746D02*
X21801135Y-9455127D01*
X21801135Y-9455127D02*
X21791611Y-9426555D01*
X21791611Y-9426555D02*
X21782087Y-9407508D01*
X21782087Y-9407508D02*
X21763039Y-9378936D01*
X21763039Y-9378936D02*
X21753516Y-9369412D01*
M02*
