M48
; DRILL file {KiCad 8.0.4} date 2024-08-12T23:01:37-0400
; FORMAT={-:-/ absolute / inch / decimal}
; #@! TF.CreationDate,2024-08-12T23:01:37-04:00
; #@! TF.GenerationSoftware,Kicad,Pcbnew,8.0.4
; #@! TF.FileFunction,Plated,1,2,PTH
FMAT,2
INCH
; #@! TA.AperFunction,Plated,PTH,ComponentDrill
T1C0.0197
; #@! TA.AperFunction,Plated,PTH,ComponentDrill
T2C0.0354
; #@! TA.AperFunction,Plated,PTH,ComponentDrill
T3C0.0394
%
G90
G05
T1
G00X7.5256Y-2.015
M15
G01X7.5531Y-2.015
M16
G05
G00X7.5256Y-2.3551
M15
G01X7.5531Y-2.3551
M16
G05
G00X7.6752Y-2.015
M15
G01X7.7028Y-2.015
M16
G05
G00X7.6752Y-2.3551
M15
G01X7.7028Y-2.3551
M16
G05
T2
G00X7.1181Y-2.8465
M15
G01X7.1811Y-2.8465
M16
G05
G00X7.1181Y-3.2953
M15
G01X7.1811Y-3.2953
M16
G05
T3
G00X6.3504Y-2.2874
M15
G01X6.3504Y-2.2677
M16
G05
G00X6.4823Y-2.0768
M15
G01X6.502Y-2.0768
M16
G05
G00X6.5551Y-2.4055
M15
G01X6.5551Y-2.3858
M16
G05
G00X6.6181Y-2.3268
M15
G01X6.6181Y-2.3071
M16
G05
G00X6.6693Y-2.4055
M15
G01X6.6693Y-2.3858
M16
G05
M30
