%TF.GenerationSoftware,KiCad,Pcbnew,8.0.4*%
%TF.CreationDate,2024-08-12T23:01:29-04:00*%
%TF.ProjectId,SAMD21_MIDI_SPEAKER,53414d44-3231-45f4-9d49-44495f535045,rev?*%
%TF.SameCoordinates,Original*%
%TF.FileFunction,Paste,Top*%
%TF.FilePolarity,Positive*%
%FSLAX46Y46*%
G04 Gerber Fmt 4.6, Leading zero omitted, Abs format (unit mm)*
G04 Created by KiCad (PCBNEW 8.0.4) date 2024-08-12 23:01:29*
%MOMM*%
%LPD*%
G01*
G04 APERTURE LIST*
G04 Aperture macros list*
%AMRoundRect*
0 Rectangle with rounded corners*
0 $1 Rounding radius*
0 $2 $3 $4 $5 $6 $7 $8 $9 X,Y pos of 4 corners*
0 Add a 4 corners polygon primitive as box body*
4,1,4,$2,$3,$4,$5,$6,$7,$8,$9,$2,$3,0*
0 Add four circle primitives for the rounded corners*
1,1,$1+$1,$2,$3*
1,1,$1+$1,$4,$5*
1,1,$1+$1,$6,$7*
1,1,$1+$1,$8,$9*
0 Add four rect primitives between the rounded corners*
20,1,$1+$1,$2,$3,$4,$5,0*
20,1,$1+$1,$4,$5,$6,$7,0*
20,1,$1+$1,$6,$7,$8,$9,0*
20,1,$1+$1,$8,$9,$2,$3,0*%
%AMFreePoly0*
4,1,6,0.600000,-0.600000,-0.600000,-0.600000,-0.600000,0.000000,0.000000,0.600000,0.600000,0.600000,0.600000,-0.600000,0.600000,-0.600000,$1*%
G04 Aperture macros list end*
%ADD10RoundRect,0.175000X0.625000X-0.175000X0.625000X0.175000X-0.625000X0.175000X-0.625000X-0.175000X0*%
%ADD11RoundRect,0.200000X0.600000X-0.200000X0.600000X0.200000X-0.600000X0.200000X-0.600000X-0.200000X0*%
%ADD12RoundRect,0.225000X0.575000X-0.225000X0.575000X0.225000X-0.575000X0.225000X-0.575000X-0.225000X0*%
%ADD13R,2.500000X1.100000*%
%ADD14RoundRect,0.218750X0.256250X-0.218750X0.256250X0.218750X-0.256250X0.218750X-0.256250X-0.218750X0*%
%ADD15RoundRect,0.225000X-0.225000X-0.250000X0.225000X-0.250000X0.225000X0.250000X-0.225000X0.250000X0*%
%ADD16R,0.800000X0.400000*%
%ADD17R,0.400000X0.800000*%
%ADD18FreePoly0,180.000000*%
%ADD19R,1.200000X1.200000*%
%ADD20R,0.800000X0.800000*%
%ADD21RoundRect,0.250000X-0.255000X-0.255000X0.255000X-0.255000X0.255000X0.255000X-0.255000X0.255000X0*%
%ADD22RoundRect,0.062500X-0.350000X-0.062500X0.350000X-0.062500X0.350000X0.062500X-0.350000X0.062500X0*%
%ADD23RoundRect,0.062500X-0.062500X-0.350000X0.062500X-0.350000X0.062500X0.350000X-0.062500X0.350000X0*%
%ADD24RoundRect,0.100000X-0.637500X-0.100000X0.637500X-0.100000X0.637500X0.100000X-0.637500X0.100000X0*%
G04 APERTURE END LIST*
D10*
%TO.C,P1*%
X191320000Y-56000000D03*
D11*
X191320000Y-53980000D03*
D12*
X191320000Y-52750000D03*
D10*
X191320000Y-55000000D03*
D11*
X191320000Y-57020000D03*
D12*
X191320000Y-58250000D03*
%TD*%
D13*
%TO.C,J1*%
X178850000Y-81500000D03*
X178850000Y-79000000D03*
X178850000Y-77000000D03*
X178850000Y-74500000D03*
%TD*%
D14*
%TO.C,D2*%
X155500000Y-58287500D03*
X155500000Y-56712500D03*
%TD*%
%TO.C,D1*%
X152910000Y-58287500D03*
X152910000Y-56712500D03*
%TD*%
D15*
%TO.C,C2*%
X172325000Y-69322500D03*
X173875000Y-69322500D03*
%TD*%
%TO.C,C1*%
X172325000Y-66812500D03*
X173875000Y-66812500D03*
%TD*%
D16*
%TO.C,U4*%
X168500000Y-83950000D03*
X168500000Y-83100000D03*
X168500000Y-82250000D03*
X168500000Y-81400000D03*
X168500000Y-80550000D03*
X168500000Y-79700000D03*
X168500000Y-78850000D03*
X168500000Y-78000000D03*
X168500000Y-77150000D03*
X168500000Y-76300000D03*
X168500000Y-75450000D03*
X168500000Y-74600000D03*
X168500000Y-73750000D03*
X168500000Y-72900000D03*
X168500000Y-72050000D03*
D17*
X167450000Y-71000000D03*
X166600000Y-71000000D03*
X165750000Y-71000000D03*
X164900000Y-71000000D03*
X164050000Y-71000000D03*
X163200000Y-71000000D03*
X162350000Y-71000000D03*
X161500000Y-71000000D03*
X160650000Y-71000000D03*
X159800000Y-71000000D03*
X158950000Y-71000000D03*
X158100000Y-71000000D03*
X157250000Y-71000000D03*
X156400000Y-71000000D03*
X155550000Y-71000000D03*
D16*
X154500000Y-72050000D03*
X154500000Y-72900000D03*
X154500000Y-73750000D03*
X154500000Y-74600000D03*
X154500000Y-75450000D03*
X154500000Y-76300000D03*
X154500000Y-77150000D03*
X154500000Y-78000000D03*
X154500000Y-78850000D03*
X154500000Y-79700000D03*
X154500000Y-80550000D03*
X154500000Y-81400000D03*
X154500000Y-82250000D03*
X154500000Y-83100000D03*
X154500000Y-83950000D03*
D17*
X155550000Y-85000000D03*
X156400000Y-85000000D03*
X157250000Y-85000000D03*
X158100000Y-85000000D03*
X158950000Y-85000000D03*
X159800000Y-85000000D03*
X160650000Y-85000000D03*
X161500000Y-85000000D03*
X162350000Y-85000000D03*
X163200000Y-85000000D03*
X164050000Y-85000000D03*
X164900000Y-85000000D03*
X165750000Y-85000000D03*
X166600000Y-85000000D03*
X167450000Y-85000000D03*
D18*
X163150000Y-79650000D03*
D19*
X163150000Y-78000000D03*
X163150000Y-76350000D03*
X161500000Y-79650000D03*
X161500000Y-78000000D03*
X161500000Y-76350000D03*
X159850000Y-79650000D03*
X159850000Y-78000000D03*
X159850000Y-76350000D03*
D20*
X168500000Y-85000000D03*
X168500000Y-71000000D03*
X154500000Y-71000000D03*
X154500000Y-85000000D03*
%TD*%
D21*
%TO.C,U3*%
X154750000Y-63750000D03*
X154750000Y-65000000D03*
X156000000Y-63750000D03*
X156000000Y-65000000D03*
D22*
X153437500Y-63375000D03*
X153437500Y-63875000D03*
X153437500Y-64375000D03*
X153437500Y-64875000D03*
X153437500Y-65375000D03*
D23*
X154375000Y-66312500D03*
X154875000Y-66312500D03*
X155375000Y-66312500D03*
X155875000Y-66312500D03*
X156375000Y-66312500D03*
D22*
X157312500Y-65375000D03*
X157312500Y-64875000D03*
X157312500Y-64375000D03*
X157312500Y-63875000D03*
X157312500Y-63375000D03*
D23*
X156375000Y-62437500D03*
X155875000Y-62437500D03*
X155375000Y-62437500D03*
X154875000Y-62437500D03*
X154375000Y-62437500D03*
%TD*%
D24*
%TO.C,U2*%
X174275000Y-57350000D03*
X174275000Y-58000000D03*
X174275000Y-58650000D03*
X174275000Y-59300000D03*
X174275000Y-59950000D03*
X174275000Y-60600000D03*
X174275000Y-61250000D03*
X174275000Y-61900000D03*
X180000000Y-61900000D03*
X180000000Y-61250000D03*
X180000000Y-60600000D03*
X180000000Y-59950000D03*
X180000000Y-59300000D03*
X180000000Y-58650000D03*
X180000000Y-58000000D03*
X180000000Y-57350000D03*
%TD*%
M02*
